<?xml version="1.0" standalone="no"?>
<!DOCTYPE svg PUBLIC "-//W3C//DTD SVG 1.1//EN" "http://www.w3.org/Graphics/SVG/1.1/DTD/svg11.dtd" >
<!--
2013-9-30: Created.
-->
<svg>
<metadata>
Created by iconfont
</metadata>
<defs>

<font id="iconfont" horiz-adv-x="1024" >
  <font-face
    font-family="iconfont"
    font-weight="500"
    font-stretch="normal"
    units-per-em="1024"
    ascent="896"
    descent="-128"
  />
    <missing-glyph />
    
    <glyph glyph-name="x" unicode="x" horiz-adv-x="1001"
d="M281 543q-27 -1 -53 -1h-83q-18 0 -36.5 -6t-32.5 -18.5t-23 -32t-9 -45.5v-76h912v41q0 16 -0.5 30t-0.5 18q0 13 -5 29t-17 29.5t-31.5 22.5t-49.5 9h-133v-97h-438v97zM955 310v-52q0 -23 0.5 -52t0.5 -58t-10.5 -47.5t-26 -30t-33 -16t-31.5 -4.5q-14 -1 -29.5 -0.5
t-29.5 0.5h-32l-45 128h-439l-44 -128h-29h-34q-20 0 -45 1q-25 0 -41 9.5t-25.5 23t-13.5 29.5t-4 30v167h911zM163 247q-12 0 -21 -8.5t-9 -21.5t9 -21.5t21 -8.5q13 0 22 8.5t9 21.5t-9 21.5t-22 8.5zM316 123q-8 -26 -14 -48q-5 -19 -10.5 -37t-7.5 -25t-3 -15t1 -14.5
t9.5 -10.5t21.5 -4h37h67h81h80h64h36q23 0 34 12t2 38q-5 13 -9.5 30.5t-9.5 34.5q-5 19 -11 39h-368zM336 498v228q0 11 2.5 23t10 21.5t20.5 15.5t34 6h188q31 0 51.5 -14.5t20.5 -52.5v-227h-327z" />
    

    
    <glyph glyph-name="tianjia" unicode="&#58880;" d="M1024 457.142857 585.142857 457.142857 585.142857 896 475.428571 896 475.428571 457.142857 36.571429 457.142857 36.571429 347.428571 475.428571 347.428571 475.428571-91.428571 585.142857-91.428571 585.142857 347.428571 1024 347.428571Z"  horiz-adv-x="1024" />

    
    <glyph glyph-name="close" unicode="&#58884;" d="M960.288 690.272l-45.248 45.248-402.496-402.496-402.528 402.496-45.248-45.248 402.528-402.496-402.528-402.496 45.248-45.248 402.528 402.496 402.496-402.496 45.248 45.248-402.496 402.496z"  horiz-adv-x="1024" />

    
    <glyph glyph-name="guanbi" unicode="&#58881;" d="M481.457892 748.372867c-264.080537 0-478.159264-214.078727-478.159264-478.162334 0-264.079514 214.078727-478.160287 478.159264-478.160287 264.064164 0 478.142891 214.07975 478.142891 478.160287C959.600783 534.293117 745.522056 748.372867 481.457892 748.372867zM683.378717 68.673447c-0.007163-0.008186-0.01535-0.016373-0.023536-0.023536-13.292748-13.292748-34.844599-13.30605-48.15372-0.021489L481.520313 222.034301 328.113411 68.335756c-0.008186-0.007163-0.016373-0.017396-0.023536-0.022513-13.293771-13.293771-34.843576-13.307074-48.152696-0.023536-13.332656 13.30912-13.355169 34.878368-0.063445 48.194652l153.406902 153.697521L279.581068 423.591853c-13.31526 13.291724-13.33675 34.860972-0.046049 48.177256 0.008186 0.007163 0.016373 0.01535 0.023536 0.023536 13.275351 13.275351 34.827203 13.287631 48.136324 0.004093l153.697521-153.407925 153.392576 153.701614c0.008186 0.007163 0.016373 0.01535 0.022513 0.022513 13.293771 13.293771 34.845623 13.30605 48.171116 0.00614 13.317307-13.291724 13.335726-34.860972 0.046049-48.177256l-153.408949-153.700591L683.316296 116.833307C696.631556 103.541583 696.653045 81.970288 683.378717 68.673447z"  horiz-adv-x="1024" />

    
    <glyph glyph-name="biaoqing" unicode="&#58900;" d="M512-212C229.670912-212 0 17.67296 0 300.004096 0 582.329088 229.70368 812 512 812c282.29632 0 512-229.670912 512-511.997952C1024 17.67296 794.32704-212 512-212L512-212zM512 738.859776c-241.993728 0-438.857728-196.864-438.857728-438.85568 0-241.997824 196.864-438.861824 438.857728-438.861824 241.997824 0 438.861824 196.864 438.861824 438.861824C950.859776 541.995776 753.995776 738.859776 512 738.859776L512 738.859776zM513.206272 1.321728c-101.924864 0-196.460544 46.082048-259.328 126.427136-12.433408 15.910912-9.654272 38.877184 6.25664 51.310592 15.869952 12.47232 38.873088 9.695232 51.345408-6.254592 48.896-62.500864 122.437632-98.336768 201.728-98.336768 80.128 0 154.144768 36.456448 203.040768 100.05504 12.32896 16.017408 35.25632 19.054592 51.27168 6.72768 16.019456-12.326912 19.05664-35.289088 6.731776-51.27168C711.387136 48.20864 616.228864 1.321728 513.206272 1.321728L513.206272 1.321728zM348.63104 296.342272c-30.312448 0-54.853632 24.543232-54.853632 54.861824l0 73.140224c0 30.32064 24.541184 54.85568 54.853632 54.85568 30.32064 0 54.861824-24.53504 54.861824-54.85568l0-73.140224C403.492864 320.918272 378.916864 296.342272 348.63104 296.342272L348.63104 296.342272zM677.77536 296.342272c-30.283776 0-54.85568 24.543232-54.85568 54.861824l0 73.140224c0 30.32064 24.571904 54.85568 54.85568 54.85568 30.27968 0 54.85568-24.53504 54.85568-54.85568l0-73.140224C732.63104 320.918272 708.05504 296.342272 677.77536 296.342272L677.77536 296.342272zM677.77536 296.342272"  horiz-adv-x="1024" />

    
    <glyph glyph-name="tuichu" unicode="&#58885;" d="M496.32-127.392c-55.488 0-109.376 10.848-160.064 32.352-48.992 20.672-92.928 50.304-130.688 88.064-37.76 37.76-67.392 81.76-88.128 130.72C96 174.432 85.12 228.288 85.12 283.808c0 66.432 16.288 132.384 47.072 190.816 29.76 56.448 72.992 106.016 125.056 143.328 14.464 10.368 34.56 7.008 44.896-7.424 10.336-14.432 7.04-34.496-7.424-44.8C250.72 534.112 214.208 492.32 189.12 444.672c-26.336-49.952-39.68-104.064-39.68-160.864 0-92.672 36.096-179.808 101.632-245.312 65.504-65.536 152.608-101.632 245.248-101.632 92.608 0 179.744 36.096 245.28 101.632 65.536 65.504 101.6 152.64 101.6 245.312 0 56.736-13.312 110.944-39.68 160.864-25.088 47.616-61.632 89.44-105.632 120.992-14.432 10.304-17.792 30.368-7.424 44.8 10.368 14.432 30.432 17.824 44.864 7.424 52.096-37.312 95.392-86.88 125.12-143.328 30.816-58.432 47.104-124.384 47.104-190.816 0-55.52-10.88-109.376-32.352-160.096-20.704-48.96-50.368-92.96-88.128-130.72-37.76-37.76-81.696-67.36-130.688-88.128C605.664-116.576 551.808-127.392 496.32-127.392L496.32-127.392zM505.984 318.816c-17.76 0-32.16 14.336-32.16 32.128L473.824 731.808c0 17.728 14.4 32.16 32.16 32.16s32.192-14.432 32.192-32.16l0-380.864C538.176 333.152 523.744 318.816 505.984 318.816L505.984 318.816zM505.984 318.816"  horiz-adv-x="1024" />

    
    <glyph glyph-name="dianxinganli" unicode="&#58886;" d="M742.251794 479.419346l0 127.913275c0 14.065344-11.51676 25.582655-25.583703 25.582655l-179.085922 0 0 51.16531c0 28.130687-23.035566 51.16531-51.167406 51.16531l-102.334813 0c-28.13184 0-51.167406-23.034623-51.167406-51.16531l0-51.16531-179.085922 0c-14.06592 0-25.583703-11.517311-25.583703-25.582655l0-511.653099c0-14.065344 11.517783-25.582655 25.583703-25.582655l230.253329 0 0-153.49593 358.171845 0 153.502219 153.49593 0 409.322479L742.251794 479.419346zM384.079949 683.980301l0.100288 0.100284 102.15982 0c0.02456-0.024559 0.074704-0.050142 0.100288-0.100284l-0.025584-51.065026-102.334813 0L384.079949 683.980301zM230.57773 581.749966l409.339251 0 0-51.16531-409.339251 0L230.57773 581.749966zM742.251794-11.048245l0 81.145112 81.148436 0L742.251794-11.048245zM844.586606 121.262176l-153.502219 0 0-153.49593-255.837032 0 0 460.487789 409.339251 0L844.586606 121.262176z"  horiz-adv-x="1024" />

    
    <glyph glyph-name="gongsi" unicode="&#58887;" d="M64.085 749.248c148.353 0 295.041 0 444.432 0 0-298.936 0-596.874 0-896.964-147.338 0-294.692 0-444.432 0C64.085 149.718 64.085 447.735 64.085 749.248zM116.086 526.819c40.923 0 77.098 0 114.211 0 0 37.925 0 73.439 0 113.141-34.723 0-68.329 0.547-101.87-0.68-4.286-0.156-11.607-9.442-11.79-14.697C115.528 592.74 116.086 560.843 116.086 526.819zM344.332 524.76c33.463 0 66.039-0.696 98.518 0.731 4.991 0.221 13.352 10.008 13.661 15.719 1.458 27.106 1.63 54.394-0.077 81.471-0.381 6.135-9.817 16.426-15.511 16.72-31.559 1.644-63.255 0.788-96.591 0.788C344.332 600.704 344.332 564.603 344.332 524.76zM231.501 75.611c0 34.067 1.016 64.907-0.856 95.574-0.381 6.197-11.348 16.268-18.019 16.768-26.119 1.957-52.514 1.579-78.711 0.212-6.074-0.317-16.66-7.744-16.858-12.262-1.447-33.218-0.779-66.528-0.779-100.292C156.424 75.611 191.848 75.611 231.501 75.611zM344.725 188.712c0-39.979 0-75.975 0-111.832 38.179 0 74.144 0 112.439 0 0 33.254 0.872 64.142-0.762 94.894-0.311 5.914-10.204 15.861-16.092 16.174C409.542 189.582 378.63 188.712 344.725 188.712zM229.988 413.737c-34.926 0-68.384 0.433-101.803-0.558-4.097-0.122-11.287-7.772-11.419-12.093-0.956-33.234-0.525-66.506-0.525-98.976 40.896 0 76.884 0 113.748 0C229.988 339.728 229.988 374.883 229.988 413.737zM457.153 413.943c-36.319 0-68.042 0.429-99.729-0.453-4.864-0.135-13.617-6.165-13.722-9.68-1.043-34.184-0.624-68.412-0.624-104.076 34.696 0 64.741-1.022 94.615 0.775 6.792 0.409 18.211 10.257 18.587 16.312C458.184 347.539 457.153 378.435 457.153 413.943zM679.426 74.018c0-74.725 0-147.695 0-222.23-37.064 0-70.629 0-106.797 0 0 165.856 0 331.894 0 500.468 127.945 0 256.314 0 387.121 0 0-166.138 0-332.188 0-500.181-34.707 0-68.965 0-106.57 0 0 73.773 0 146.75 0 221.943C794.879 74.018 739.84 74.018 679.426 74.018zM571.324 416.476c0 17.363 0 32.113 0 49.126 129.613 0 257.979 0 388.59 0 0-16.024 0-31.404 0-49.126C831.004 416.476 702.623 416.476 571.324 416.476z"  horiz-adv-x="1024" />

    
    <glyph glyph-name="quanxian" unicode="&#58888;" d="M512 493.434547c-35.750225 0-64.835657-29.085432-64.835657-64.835657s29.085432-64.834634 64.835657-64.834634c35.750225 0 64.834634 29.084409 64.834634 64.834634S547.749202 493.434547 512 493.434547zM783.478018 697.984247c-100.528578 0-195.326641 32.660864-271.478018 89.11155C435.848623 730.645111 341.05056 697.984247 240.521982 697.984247c-34.933627 0-71.088058 6.477528-108.294448 19.361977l0-426.454672c0-39.575344 14.107299-88.163969 40.796148-140.510174 27.762297-54.453193 69.204152-113.043612 119.844505-169.436994 44.973284-50.083675 97.488335-98.561783 147.870816-136.504954 22.153556-16.683984 40.629349-28.913517 55.085596-37.612643 7.147794-4.300956 16.090467-4.205788 23.153326 0.233314 14.647605 9.206686 33.314757 21.924335 55.710836 38.951127 51.978838 39.520085 105.807814 88.704275 151.570067 138.495284 52.446489 57.062624 95.261621 115.731838 123.818003 169.668261 27.278273 51.52142 41.696658 98.798167 41.696658 136.716778L891.77349 717.346223C854.566076 704.462798 818.411645 697.984247 783.478018 697.984247zM552.932248 255.975321l0-186.128141c0-22.605857-18.326391-40.932248-40.932248-40.932248l0 0c-22.605857 0-40.932248 18.326391-40.932248 40.932248L471.067752 255.975321c-78.149894 18.529005-136.467091 88.889493-136.467091 172.623569 0 97.81784 79.5815 177.399339 177.399339 177.399339 97.81784 0 177.398316-79.5815 177.398316-177.399339C689.398316 344.864814 631.081119 274.503303 552.932248 255.975321z"  horiz-adv-x="1024" />

    
    <glyph glyph-name="shouye" unicode="&#58889;" d="M950.347776 356.040448l-122.161152 96.252928L828.186624 558.649088c0 17.97632-14.406656 32.580608-32.15872 32.580608l-61.303808 0c-17.754112 0-32.13312-14.605312-32.13312-32.580608l0-14.65856L551.832576 659.543808c-0.632832 0.47616-1.288192 0.900096-1.968128 1.276928-11.10016 7.549952-24.064 11.604992-37.548032 11.604992-14.067712 0-27.523072-4.32128-38.994944-12.509184-0.128-0.135168-0.315392-0.29184-0.497664-0.37376L74.308608 356.040448c-10.605568-7.822336-12.914688-22.770688-5.265408-33.456128 7.701504-10.681344 22.49216-13.092864 33.073152-5.32992l398.176256 303.346688c0.080896 0.026624 0.18432 0.080896 0.263168 0.13312 3.432448 2.465792 7.51616 3.791872 11.76064 3.791872 4.24448 0 8.324096-1.32608 11.72992-3.791872 0.156672-0.106496 0.338944-0.182272 0.525312-0.29184l397.939712-303.187968c10.604544-7.762944 25.402368-5.351424 33.077248 5.32992C963.262464 333.270784 960.953344 348.218112 950.347776 356.040448zM820.40832 306.36416 544.238592 519.843584c-0.054272 0.054272-0.160768 0.1024-0.187392 0.130048-9.319424 6.731776-20.293632 10.287104-31.734784 10.340352-11.394048 0-22.342656-3.581952-31.635456-10.232832-0.079872-0.108544-0.182272-0.135168-0.290816-0.237568l-276.14208-213.479424c-6.177792-4.559872-9.792512-11.769856-9.792512-19.381248l0-270.288896c0-46.2336 37.185536-83.798016 82.80064-83.798016l133.843968 0L411.10016 134.396672c0 35.551232 28.411904 64.28672 63.476736 64.28672l65.864704 0c35.064832 0 63.500288-28.735488 63.500288-64.28672l0-201.500672 143.404032 0c45.668352 0 82.801664 37.564416 82.801664 83.798016L830.147584 286.982912C830.148608 294.595328 826.505216 301.804288 820.40832 306.36416z"  horiz-adv-x="1024" />

    
    <glyph glyph-name="xiaoxi" unicode="&#58890;" d="M703.918519 304.623297c-141.430126 0-255.917624-80.649831-255.917624-179.833785 0-44.190455 35.586496-94.542236 73.188906-125.942387l-36.499285-107.975177 110.869087 71.13206c33.075303-10.847046 69.574588-17.010419 108.358917-17.010419 141.280724 0 255.764128 80.343863 255.764128 179.795922C959.682647 223.974489 845.19822 304.623297 703.918519 304.623297zM703.918519 367.461461c94.655823 0 179.034583-30.752398 237.610676-78.82323 11.608386 29.229718 18.153452 60.172451 18.153452 92.105744 0 181.39535-200.461591 328.384076-447.664739 328.384076-247.238964 0-447.702602-146.988726-447.702602-328.384076 0-80.573083 62.189388-172.527378 127.882576-229.846852l-63.903425-197.114356 194.297195 129.899512c25.348318-8.676613 52.257178-15.527648 79.888492-20.665669-11.30344 23.177885-18.34481 47.269583-18.34481 69.87851C384.136356 262.490711 527.318382 367.461461 703.918519 367.461461z"  horiz-adv-x="1024" />

    
    <glyph glyph-name="pinpai" unicode="&#58899;" d="M857.93792 379.172864 453.464064 785.593344l-389.41696-1.486848 0.587776-360.107008 418.9696-420.953088c26.268672-26.421248 68.5312-26.765312 94.364672-0.799744l280.76032 282.098688C884.580352 310.3232 884.227072 352.77312 857.93792 379.172864L857.93792 379.172864zM232.188928 551.76192c-36.553728 0-66.177024 29.766656-66.177024 66.494464 0 36.721664 29.623296 66.492416 66.177024 66.492416 36.542464 0 66.16576-29.766656 66.16576-66.492416C298.354688 581.533696 268.727296 551.76192 232.188928 551.76192L232.188928 551.76192zM232.188928 551.76192M605.950976-23.3984c-8.82688 0-17.748992 1.608704-26.331136 4.93056l4.12672 10.671104c22.515712-8.695808 47.852544-3.4816 64.54272 13.2864l280.748032 282.098688c23.596032 23.699456 23.231488 62.613504-0.78848 86.751232L525.448192 779.065344l-46.276608-0.176128-0.049152 11.447296L530.194432 790.528l1.687552-1.690624 404.476928-406.424576c28.45696-28.588032 28.802048-74.754048 0.796672-102.894592L656.403456-2.589696C642.886656-16.167936 624.64512-23.3984 605.950976-23.3984L605.950976-23.3984zM605.950976-23.3984"  horiz-adv-x="1024" />

    
    <glyph glyph-name="xiaoxi1" unicode="&#58891;" d="M545.186909 742.306909c-13.195636 6.213818-28.788364 4.165818-39.982545-5.166545l-216.180364-179.874909-172.288 0.698182L116.573091 557.963636c-9.890909 0-19.456-3.933091-26.484364-10.961455-7.074909-7.028364-11.077818-16.570182-11.077818-26.600727l-0.791273-300.683636c0-10.007273 3.909818-19.572364 10.984727-26.600727 7.028364-7.121455 16.616727-11.054545 26.624-11.054545l174.336 0 215.063273-179.269818c6.865455-5.701818 15.476364-8.657455 24.040727-8.657455 5.422545 0 10.868364 1.186909 15.965091 3.560727 13.195636 6.167273 21.643636 19.432727 21.643636 34.001455L566.877091 708.328727C566.830545 722.874182 558.405818 736.116364 545.186909 742.306909L545.186909 742.306909 545.186909 742.306909 545.186909 742.306909zM690.920727 554.402909c-18.548364 8.773818-40.564364 0.791273-49.570909-17.664-8.983273-18.525091-1.210182-40.890182 17.175273-50.152727 2.397091-1.233455 58.670545-30.487273 58.670545-113.826909 0-89.041455-52.666182-118.528-54.411636-119.505455-18.594909-9.285818-26.112-31.860364-16.826182-50.432 6.632727-13.172364 19.851636-20.805818 33.698909-20.805818 5.632 0 11.403636 1.256727 16.779636 3.956364 3.909818 1.978182 95.906909 49.570909 95.906909 186.740364C792.366545 505.134545 695.016727 552.448 690.920727 554.402909L690.920727 554.402909 690.920727 554.402909 690.920727 554.402909zM807.912727 664.785455c-17.291636 11.124364-40.285091 6.074182-51.642182-11.240727-11.264-17.291636-6.306909-40.541091 10.938182-51.944727 4.049455-2.699636 100.328727-68.305455 100.328727-231.610182 0-163.630545-92.346182-229.329455-96.046545-231.819636-17.291636-11.543273-21.922909-34.816-10.402909-52.107636 7.214545-10.868364 19.153455-16.756364 31.301818-16.756364 7.144727 0 14.382545 2.071273 20.852364 6.306909 5.282909 3.514182 129.489455 88.692364 129.489455 294.446545C942.708364 576.162909 813.428364 661.271273 807.912727 664.785455L807.912727 664.785455 807.912727 664.785455 807.912727 664.785455zM807.912727 664.785455"  horiz-adv-x="1024" />

    
    <glyph glyph-name="yonghufankui01" unicode="&#58895;" d="M73.064574 75.487507c0 139.399887 0 278.821263 0 418.22115 0.204661 0.715291 0.532119 1.411139 0.613984 2.168386 1.350764 10.457166 4.707209 20.23895 10.109242 29.283953 8.020674 13.44522 17.885346 25.579585 31.677467 33.028231 130.437771 70.682829 261.120113 140.997268 391.598816 211.515345 3.560082 1.944282 6.138814 2.026146 9.740852 0.061398 127.777175-69.045539 255.635191-138.090055 383.618051-206.870558 12.605086-6.79373 23.288402-15.408945 32.127721-26.499537 10.026354-12.606109 16.902972-26.787086 17.844413-43.097564 0.734734-12.134365 0.490164-24.413016 0.531096-36.608779 0-124.094296-0.040932-248.187569 0-372.280842 0.040932-22.571065-7.366781-42.073234-23.409153-58.035788-18.294668-18.191314-40.684608-26.377764-66.26317-26.39823-232.878908 0-465.718931 0-698.598862 0-11.828396 0-23.370267 1.699712-34.380018 5.976108-23.287379 9.064446-40.600697 24.473391-49.768497 48.00841C75.847967 60.81432 74.824661 68.302875 73.064574 75.487507zM147.717831 495.877043c1.555425-0.920976 2.619664-1.63729 3.724835-2.27174 119.100562-69.127404 238.241033-138.253784 357.300662-207.42212 2.495844-1.431605 4.213975-1.309832 6.588045 0.060375 118.978788 69.107961 237.995439 138.173966 357.014136 207.239971 1.187035 0.694825 2.292206 1.431605 3.848655 2.333138-1.2689 0.797156-2.087545 1.390673-2.947122 1.861394-119.426996 63.990407-238.895949 127.960347-358.323968 192.013175-2.211365 1.166569-3.888564 1.084705-5.975085-0.102331-119.223359-63.909565-238.446717-127.756709-357.669052-191.645808C150.172743 497.349581 149.149437 496.716154 147.717831 495.877043zM73.064574 75.487507c0 139.399887 0 278.821263 0 418.22115 0.204661 0.715291 0.532119 1.411139 0.613984 2.168386 1.350764 10.457166 4.707209 20.23895 10.109242 29.283953 8.020674 13.44522 17.885346 25.579585 31.677467 33.028231 130.437771 70.682829 261.120113 140.997268 391.598816 211.515345 3.560082 1.944282 6.138814 2.026146 9.740852 0.061398 127.777175-69.045539 255.635191-138.090055 383.618051-206.870558 12.605086-6.79373 23.288402-15.408945 32.127721-26.499537 10.026354-12.606109 16.902972-26.787086 17.844413-43.097564 0.734734-12.134365 0.490164-24.413016 0.531096-36.608779 0-124.094296-0.040932-248.187569 0-372.280842 0.040932-22.571065-7.366781-42.073234-23.409153-58.035788-18.294668-18.191314-40.684608-26.377764-66.26317-26.39823-232.878908 0-465.718931 0-698.598862 0-11.828396 0-23.370267 1.699712-34.380018 5.976108-23.287379 9.064446-40.600697 24.473391-49.768497 48.00841C75.847967 60.81432 74.824661 68.302875 73.064574 75.487507zM147.717831 495.877043c1.555425-0.920976 2.619664-1.63729 3.724835-2.27174 119.100562-69.127404 238.241033-138.253784 357.300662-207.42212 2.495844-1.431605 4.213975-1.309832 6.588045 0.060375 118.978788 69.107961 237.995439 138.173966 357.014136 207.239971 1.187035 0.694825 2.292206 1.431605 3.848655 2.333138-1.2689 0.797156-2.087545 1.390673-2.947122 1.861394-119.426996 63.990407-238.895949 127.960347-358.323968 192.013175-2.211365 1.166569-3.888564 1.084705-5.975085-0.102331-119.223359-63.909565-238.446717-127.756709-357.669052-191.645808C150.172743 497.349581 149.149437 496.716154 147.717831 495.877043z"  horiz-adv-x="1024" />

    
    <glyph glyph-name="dingwei" unicode="&#58901;" d="M512-128c-254.464 0-512 60.096-512 174.976 0 79.616 116.8 122.88 214.784 145.152 16.64 3.776 33.344-6.656 37.12-23.36 3.84-16.768-6.656-33.344-23.36-37.12-122.176-27.776-166.528-65.728-166.528-84.608 0-38.336 158.784-113.024 449.92-113.024s449.92 74.688 449.92 113.024c0 13.888-28.16 47.744-134.72 76.736-16.512 4.48-26.24 21.504-21.824 38.016 4.48 16.64 21.568 26.368 38.080 21.888 118.144-32.192 180.608-79.424 180.608-136.704 0-114.88-257.536-174.976-512-174.976zM520.128 6.72c-8.32 0-16.32 3.328-22.144 9.28-89.28 91.136-216.64 240.64-275.264 333.248-39.616 62.592-59.648 128.448-59.648 195.712 0 193.536 157.824 351.040 351.68 351.040 193.92 0 351.68-157.504 351.68-351.040 0-64.768-19.968-130.368-59.328-195.072-58.112-95.616-122.24-176.512-264-332.992-5.76-6.272-13.824-9.984-22.4-10.112-0.128-0.064-0.384-0.064-0.576-0.064zM514.752 833.92c-159.68 0-289.6-129.6-289.6-289.024 0-55.36 16.896-110.080 50.048-162.56 50.816-80.32 160.704-210.944 244.16-299.136 123.392 137.28 182.016 212.16 234.752 298.88 33.792 55.552 50.24 108.8 50.24 162.816 0 159.424-129.92 289.024-289.6 289.024zM514.752 388.48c-87.808 0-159.296 71.296-159.296 159.040 0 87.68 71.488 159.040 159.296 159.040 87.872 0 159.296-71.36 159.296-159.040 0-87.68-71.424-159.040-159.296-159.040zM514.752 644.544c-53.632 0-97.28-43.52-97.28-97.024s43.648-96.96 97.28-96.96 97.28 43.52 97.28 97.024-43.648 96.96-97.28 96.96z"  horiz-adv-x="1025" />

    
    <glyph glyph-name="kehu" unicode="&#58892;" d="M580.03456 338.82112c-74.97728 63.77472-92.42624 53.16608-92.42624 53.16608-31.29344-17.34656-66.80576-28.01664-105.12384-28.01664-41.51296 0-79.85152 12.1856-112.98816 32.21504C135.20896 333.35296 35.14368 162.05824 20.48-45.71136l724.0704-2.70336C733.63456 114.05312 655.03232 275.10784 580.03456 338.82112zM382.48448 1.024l-53.69856 55.56224 48.68096 254.21824L350.208 348.59008c6.9632 9.54368 57.05728 10.4448 64.6144 0l-27.27936-37.80608L436.224 56.58624 382.48448 1.024zM269.5168 410.03008c33.11616-20.04992 71.45472-32.21504 112.98816-32.21504 38.31808 0 73.8304 10.67008 105.12384 27.9552 67.76832 37.25312 114.15552 108.544 114.15552 191.34464 0 121.1392-98.16064 219.29984-219.27936 219.29984-121.1392 0-219.32032-98.16064-219.32032-219.29984C163.16416 517.50912 206.00832 448.43008 269.5168 410.03008zM892.12928 213.83168c-50.76992 43.13088-62.54592 35.9424-62.54592 35.9424-21.2992-11.75552-45.2608-18.96448-71.18848-18.96448-28.11904 0-54.12864 8.27392-76.47232 21.83168-90.99264-42.53696-158.72-158.5152-168.71424-299.2128L1003.52-48.41472C996.20864 61.56288 942.94016 170.63936 892.12928 213.83168zM758.39488-14.92992l-36.39296 37.62176 32.93184 172.07296-18.45248 25.68192c4.73088 6.41024 38.64576 7.08608 43.76576 0l-18.41152-25.68192 32.91136-172.07296L758.39488-14.92992zM681.92256 262.02112c22.34368-13.55776 48.35328-21.83168 76.47232-21.83168 25.92768 0 49.88928 7.24992 71.18848 18.96448 45.8752 25.1904 77.312 73.50272 77.312 129.536 0 82.08384-66.51904 148.50048-148.50048 148.50048-82.0224 0-148.50048-66.41664-148.50048-148.50048C609.8944 334.80704 638.83264 288.0512 681.92256 262.02112z"  horiz-adv-x="1024" />

    
    <glyph glyph-name="artboard87" unicode="&#58882;" d="M896 768 896 0 128 0 128 768 896 768 896 768ZM960 832 64 832 64-64 960-64 960 832 960 832 960 832ZM733.888 411.712 290.112 411.712 290.112 356.224 733.888 356.224 733.888 411.712 733.888 411.712Z"  horiz-adv-x="1024" />

    
    <glyph glyph-name="artboard88" unicode="&#58883;" d="M64-64 64 832 960 832 960-64 64-64 64-64ZM907.294118 779.294118 116.705882 779.294118 116.705882-11.294118 907.294118-11.294118 907.294118 779.294118 907.294118 779.294118ZM485.647059 568.470588 536.719059 568.470588 536.719059 410.352941 694.836704 410.352941 694.836704 359.280941 536.719059 359.280941 536.719059 201.163296 485.647059 201.163296 485.647059 359.280941 327.529412 359.280941 327.529412 410.352941 485.647059 410.352941 485.647059 568.470588 485.647059 568.470588Z"  horiz-adv-x="1024" />

    
    <glyph glyph-name="guanli" unicode="&#58893;" d="M382.197702 766.039089 236.817614 766.039089c-58.656935 0-107.779725-48.663326-107.779725-107.320261l0-145.382135c0-58.656935 49.123814-105.312534 107.779725-105.312534l250.236228 0L487.053841 658.718829C487.053841 717.373717 440.853613 766.039089 382.197702 766.039089zM434.531628 460.543304 236.817614 460.543304c-29.330002 0-54.384631 23.466458-54.384631 52.79339L182.432982 658.718829c0 29.327956 25.053606 53.924143 54.384631 53.924143l145.380088 0c29.330002 0 52.334949-24.595164 52.334949-53.924143L434.532651 460.543304zM789.978059 766.039089 644.593877 766.039089c-58.656935 0-107.647719-48.663326-107.647719-107.320261L536.946159 408.023136l253.0319 0c58.654888 0 104.985076 46.656623 104.985076 105.312534L894.963135 658.718829C894.962112 717.373717 848.631924 766.039089 789.978059 766.039089zM789.978059 460.543304 589.467349 460.543304 589.467349 658.718829c0 29.327956 25.799596 53.924143 55.125505 53.924143L789.976012 712.642972c29.327956 0 51.588959-24.595164 51.588959-53.924143l0-145.382135 0.002047 0C841.567018 484.010785 819.303968 460.543304 789.978059 460.543304zM129.036865 250.940518l0-145.380088c0-58.656935 49.123814-105.447611 107.779725-105.447611l145.380088 0c58.656935 0 104.85614 46.790676 104.85614 105.447611L487.052818 358.127749 236.817614 358.127749C178.160679 358.127749 129.036865 309.597453 129.036865 250.940518zM434.531628 105.56043c0-29.330002-23.003923-52.051493-52.334949-52.051493L236.817614 53.508937c-29.330002 0-54.384631 22.720468-54.384631 52.051493L182.432982 250.940518c0 29.330002 25.053606 54.667064 54.384631 54.667064l197.715037 0L434.532651 105.56043zM789.976012 358.127749 536.947182 358.127749l0-252.568343c0-58.655911 48.990784-105.447611 107.646696-105.447611l145.381112 0c58.655911 0 104.986099 46.790676 104.986099 105.447611l0 145.381112C894.962112 309.59643 848.631924 358.127749 789.976012 358.127749z"  horiz-adv-x="1024" />

    
    <glyph glyph-name="kaifazhepingtai" unicode="&#58894;" d="M781.176 270.24c-19.152 22.496-43.52 43.656-74.704 61.472L588.192 382c0 0-17.216 17.784-19.672 41.768l0.88 16.8c27.76 18.944 48.632 47.416 61.848 80.984 39.84 1.016 40.568 97.672 20.848 108.016 6.92 78.632 6.704 213.808-174.232 215.584 0 0.008 0 0.08 0 0.08-0.608 0-1.168-0.04-1.768-0.04-0.608 0-1.16 0.04-1.768 0.04 0 0 0-0.072 0-0.08C293.392 843.376 293.176 708.2 300.096 629.568c-19.72-10.344-19-107 20.848-108.016 13.224-33.568 34.088-62.04 61.848-80.984l0.88-16.8C381.216 399.784 364 382 364 382l-118.28-50.28c-159.856-91.352-142.64-270.096-142.64-270.096s82.104-91.44 372.064-91.856c0 0 0-0.016 0-0.016 0.328 0 0.632 0.008 0.96 0.008s0.632-0.008 0.96-0.008c0 0 0 0.016 0 0.016 27.072 0.04 52.32 0.872 75.872 2.352-2.232 13.672-3.448 27.696-3.448 42.008C549.488 148.032 651.216 258.008 781.176 270.24zM789.512 95.984c-26.992 0-48.864-21.88-48.864-48.872 0-26.984 21.88-48.872 48.864-48.872 26.984 0 48.864 21.88 48.864 48.872C838.376 74.104 816.496 95.984 789.512 95.984zM905.568 83.768l-6 0c-1.752 5.256-3.896 10.328-6.352 15.232l4.272 4.272c9.544 9.536 9.544 25.008 0 34.552l-17.28 17.272c-9.544 9.536-25.016 9.536-34.552 0l-4.272-4.28c-4.896 2.464-9.968 4.6-15.232 6.352l0 6c0 13.488-10.936 24.432-24.432 24.432l-24.432 0c-13.496 0-24.432-10.944-24.432-24.432l0-6c-5.264-1.752-10.328-3.896-15.224-6.352l-4.272 4.28c-9.544 9.536-25.016 9.536-34.552 0l-17.28-17.272c-9.544-9.544-9.544-25.016 0-34.552l4.272-4.272c-2.456-4.896-4.6-9.968-6.352-15.232l-6 0c-13.496 0-24.432-10.944-24.432-24.432l0-24.44c0-13.488 10.936-24.432 24.432-24.432l6 0c1.752-5.256 3.896-10.336 6.352-15.232l-4.272-4.272c-9.544-9.536-9.544-25.008 0-34.56l17.28-17.272c9.544-9.536 25.016-9.536 34.552 0l4.272 4.272c4.896-2.456 9.968-4.6 15.224-6.344l0-6c0-13.488 10.936-24.432 24.432-24.432l24.432 0c13.496 0 24.432 10.944 24.432 24.432l0 6c5.264 1.752 10.336 3.888 15.224 6.344l4.272-4.272c9.544-9.536 25.016-9.536 34.552 0l17.28 17.272c9.544 9.544 9.544 25.016 0 34.56l-4.272 4.272c2.456 4.896 4.6 9.968 6.352 15.232l6 0c13.496 0 24.432 10.944 24.432 24.432l0 24.44C930 72.824 919.064 83.768 905.568 83.768zM789.512-21.336c-37.8 0-68.448 30.64-68.448 68.448 0 37.8 30.648 68.448 68.448 68.448 37.8 0 68.448-30.648 68.448-68.448C857.952 9.312 827.312-21.336 789.512-21.336z"  horiz-adv-x="1024" />

    
    <glyph glyph-name="gongdanguanli" unicode="&#58988;" d="M947.393 122.182h-12c-4.014-11.302-9.687-21.774-15.578-32.029l27.578-55.244-43.636-43.636-54.938 27.447c-10.342-6.022-20.902-11.782-32.334-15.84v-11.607l-43.636-43.636h-43.636l-43.636 43.636v12c-11.346 4.014-21.818 9.687-32.029 15.578l-55.244-27.578-43.636 43.636 27.447 54.938c-6.022 10.342-11.782 20.902-15.84 32.334h-11.607l-43.636 43.636v43.636l43.636 43.636h11.607c4.102 11.433 9.818 21.993 15.84 32.334l-27.447 54.938 43.636 43.636 55.244-27.622c10.211 5.934 20.684 11.564 32.029 15.622v12l43.636 43.636h43.636l43.636-43.636v-12c11.302-4.014 21.774-9.687 32.029-15.578l55.244 27.578 43.636-43.636-27.447-54.938c6.022-10.342 11.782-20.902 15.84-32.334h11.607l43.636-43.636v-43.636l-43.636-43.636zM751.030 253.091c-36.174 0-65.454-29.28-65.454-65.454s29.28-65.454 65.454-65.454c36.131 0 65.454 29.28 65.454 65.454s-29.324 65.454-65.454 65.454zM467.393 187.636c0-101.498 53.76-189.906 133.876-240h-439.331c-48.174 0-87.273 39.098-87.273 87.273v698.182c0 48.174 39.098 87.273 87.273 87.273h392.727v-174.546c0-48.174 39.098-87.273 87.273-87.273h174.546v-95.607c-21.076 5.018-42.807 8.334-65.454 8.334-156.654 0-283.636-126.982-283.636-283.636zM205.575 165.818h218.182v43.636h-218.182v-43.636zM205.575 296.727h218.182v43.636h-218.182v-43.636zM423.757 602.182h-218.182v-43.636h218.182v43.636zM467.393 471.273h-261.818v-43.636h261.818v43.636zM598.302 689.454v87.273l174.546-174.546h-87.273c-48.174 0-87.273 39.098-87.273 87.273z"  horiz-adv-x="1024" />

    
    <glyph glyph-name="huodongguanli" unicode="&#58897;" d="M808.194956 787.960355l0-122.899074-84.534302 0 0 122.899074L300.990169 787.960355l0-122.899074-84.533278 0 0 122.899074L64.294328 787.960355l0-807.624974 895.41032 0L959.704648 787.960355 808.194956 787.960355zM385.52447 191.019801l-101.441367 0L284.083104 296.362011l101.441367 0L385.52447 191.019801zM385.52447 384.147356l-101.441367 0L284.083104 489.490589l101.441367 0L385.52447 384.147356zM571.499116 191.019801l-101.441367 0L470.057749 296.362011l101.441367 0L571.499116 191.019801zM571.499116 384.147356l-101.441367 0L470.057749 489.490589l101.441367 0L571.499116 384.147356zM757.473761 191.019801l-101.441367 0L656.032394 296.362011l101.441367 0L757.473761 191.019801zM757.473761 384.147356l-101.441367 0L656.032394 489.490589l101.441367 0L757.473761 384.147356z"  horiz-adv-x="1024" />

    
    <glyph glyph-name="wenjian" unicode="&#58942;" d="M786.199893 658.732373 674.85696 754.715307 1087.597227 754.715307C1108.964693 754.715307 1126.372693 737.307307 1126.372693 715.93984L1126.372693 658.732373 786.199893 658.732373ZM1126.372693 7.877973C1126.372693-13.55776 1108.964693-31.034027 1087.597227-31.034027L141.216427-31.034027C119.84896-31.034027 102.372693-13.55776 102.372693 7.877973L102.372693 788.84864C102.372693 810.284373 119.84896 827.76064 141.216427 827.76064L485.62176 827.76064 760.804693 590.465707 1126.372693 590.465707 1126.372693 7.877973ZM1087.597227 822.981973 595.667627 822.981973 511.01696 896.027307 141.216427 896.027307C82.16576 896.027307 34.106027 847.899307 34.106027 788.84864L34.106027 7.877973C34.106027-51.172693 82.16576-99.300693 141.216427-99.300693L1087.597227-99.300693C1146.647893-99.300693 1194.63936-51.172693 1194.63936 7.877973L1194.63936 643.03104 1194.63936 658.732373 1194.63936 715.93984C1194.63936 774.990507 1146.647893 822.981973 1087.597227 822.981973L1087.597227 822.981973Z"  horiz-adv-x="1229" />

    
    <glyph glyph-name="youhuiquan" unicode="&#58896;" d="M4.992 538.944c0 20.288 3.456 34.752 9.984 43.52 6.656 8.64 21.312 12.864 44.288 12.864h141.312v-563.584h-60.672c-16.256 0-32.192 0.128-48 0.512-15.936 0.256-26.688 0.512-32.576 0.512-19.904-0.768-33.92 2.624-42.048 10.24-8.064 7.488-12.224 21.888-12.224 42.88v162.24c0 8.256 1.408 14.528 3.904 18.496 2.496 4.096 7.872 6.976 16 8.512 3.008 0 6.912 1.152 12.224 3.392 5.056 2.368 10.24 6.016 15.36 10.88s9.6 11.136 13.248 19.136c3.648 7.808 5.568 17.344 5.568 28.736 0 17.28-4.544 30.72-13.76 40.512-9.216 9.728-19.072 15.488-29.44 16.832-8 1.472-13.952 4.032-17.6 7.36-3.712 3.52-5.568 9.28-5.568 17.536v119.424zM96.704 646.016v29.376c0 14.912 5.824 28.928 17.152 41.664 11.328 12.736 23.744 19.2 36.992 19.2h152.576v-90.24h-206.72zM997.376 401.472c-5.76-1.6-10.112-4.736-12.736-9.728-2.368-4.736-3.904-10.24-3.904-16.128 0-6.144 1.472-11.904 3.904-17.472 2.624-5.76 6.976-9.728 12.736-11.904 5.888-2.368 10.624-6.848 13.888-13.504 3.392-6.848 5.248-13.888 5.504-21.504 0.384-7.488-0.64-14.72-2.752-21.376-2.24-6.72-5.504-11.648-9.856-14.72-14.72-9.024-22.016-19.136-22.016-30.4s7.232-22.656 22.016-33.728c3.008-2.368 5.632-6.528 8.256-12.352 2.496-6.144 3.776-12.096 3.776-18.24 0-6.016-1.344-11.136-4.352-15.616-3.008-4.608-8.128-6.848-15.488-6.848h-59.648c-4.224 0-6.72 0.384-6.976 1.28-0.384 0.768 0.128 1.984 1.472 3.776 1.472 1.984 3.264 4.032 5.504 6.4 2.24 2.24 4.032 4.864 5.632 7.872 3.648 10.496 3.648 19.52 0 27.008-3.776 7.616-9.856 13.888-18.88 19.136-5.888 3.008-10.24 7.744-12.608 14.272-2.624 6.272-3.648 12.864-3.264 19.648 0.256 6.848 1.472 12.736 3.776 17.984 2.24 5.376 5.632 9.152 9.856 11.392 6.016 2.24 10.368 6.4 13.248 12.352 3.008 5.888 4.48 12.352 4.48 19.136s-1.28 12.992-3.264 18.624c-2.24 5.632-5.504 9.6-10.112 11.776-5.76 3.136-10.368 7.488-13.76 13.632-3.328 5.76-4.928 12.48-4.928 20.032 0 7.616 1.344 14.848 4.352 22.016s7.616 12.992 14.272 17.472c4.608 3.008 8.256 7.104 11.136 12.352 3.136 5.376 4.48 10.88 5.12 16.896 0.384 6.080-1.024 11.84-3.392 17.472-2.624 5.696-7.232 10.304-13.888 14.080-7.232 3.712-12.736 9.28-16 16.32-3.264 7.168-4.992 14.592-4.992 22.016 0 7.616 1.728 14.656 4.992 21.504 3.264 6.656 7.872 12.032 13.76 15.872 12.48 6.656 19.52 15.936 20.48 27.52 1.152 11.648 0.256 22.464-2.752 32.064-2.368 7.616-6.656 14.336-13.12 20.352-6.72 6.080-15.232 9.024-25.472 9.024h-530.432v89.024h622.208c5.12 0 9.344-1.92 12.992-5.632 3.776-3.776 6.272-8.256 7.36-13.568 1.152-5.248 0.768-10.688-1.152-16.32-1.728-5.568-5.248-10.432-10.496-14.208-4.48-3.776-8.384-8.512-11.648-14.592-3.392-6.016-4.992-12.16-5.632-18.624-0.256-6.464 0.768-12.736 2.88-19.2 2.112-6.336 6.144-11.072 12.096-14.080 8.256-4.48 14.272-10.688 18.24-18.496 4.096-7.872 6.208-15.744 6.208-23.552 0-8-2.112-15.296-6.144-22.016-4.032-6.848-9.6-11.776-17.024-14.656-8.128-3.136-14.144-7.36-17.728-12.992-3.776-5.696-5.632-11.904-6.144-18.56-0.384-6.784 1.024-13.376 4.224-19.712 3.392-6.464 8.768-12.032 16.128-16.512 7.36-4.352 12.864-10.368 16.128-17.984 3.264-7.424 4.608-14.912 4.352-22.528-0.384-7.488-2.24-14.4-5.504-20.864-3.392-6.272-8.192-9.92-14.912-10.688v0zM853.76 418.368c-8.768-2.24-15.616-6.656-20.48-12.864-4.736-6.528-7.232-12.992-7.744-19.904-0.256-6.72 1.6-13.504 5.504-20.352 4.224-6.656 10.112-11.52 18.368-14.528 7.232-3.136 12.864-7.616 16.512-13.504 3.776-6.144 5.76-12.48 6.144-19.264s-1.024-13.248-3.904-19.136c-2.88-6.016-7.36-10.624-13.248-13.504-18.368-9.152-28.032-20.032-28.608-32.768-0.896-12.736 6.144-22.848 20.864-30.528 6.656-3.008 12.032-7.616 16-14.016 4.096-6.4 6.272-13.12 6.72-20.352 0.384-6.976-1.024-13.504-4.032-19.008-2.88-5.888-7.744-9.6-14.272-12.032-8.896-2.24-15.616-6.272-20.608-12.352-4.608-5.888-7.104-12.352-7.488-19.008-0.512-6.976 1.344-13.632 5.504-20.352 4.032-6.848 10.496-12.48 19.264-17.024 6.016-3.008 10.112-7.744 12.736-14.016 2.624-6.528 3.52-12.608 2.88-18.624-0.896-6.016-2.88-11.52-6.272-16.256-3.264-4.992-7.872-7.36-13.888-7.36h-577.92l-0 563.712h584.576c5.888 0 10.624-2.304 14.016-7.36 3.264-4.864 4.992-10.24 5.504-16.32 0.384-6.080-1.024-12.032-4.032-17.984-2.88-5.952-7.744-10.176-14.272-12.352-6.656-2.304-12.032-6.080-16.128-11.328-4.096-5.184-6.4-11.136-7.232-17.408-0.64-6.464 0.896-12.544 4.48-18.624 3.776-6.080 9.984-10.56 18.88-13.504 6.528-3.008 12.032-7.488 16-13.568s6.4-12.16 6.656-18.496c0.384-6.592-1.152-12.48-4.352-18.24-3.264-5.504-8.64-9.536-16.128-11.776v0zM587.392 342.72c-3.52 0-7.488 0.384-11.648 1.152-3.968 0.896-4.736 3.136-2.752 6.848 0.896 1.344 4.352 6.72 10.624 15.744 6.272 9.152 13.12 18.624 20.992 28.736 7.744 10.24 14.72 19.776 21.632 28.736 6.528 9.024 10.624 14.656 12.032 17.024 3.776 5.888 1.472 12.992-6.656 21.312-1.344 1.536-4.352 3.84-8.896 6.912-4.224 2.944-8.32 5.184-11.968 6.656-6.016 2.176-10.24 2.624-12.864 1.088-2.368-1.472-5.632-4.8-9.28-10.112-1.472-2.176-5.12-7.68-11.136-16.256-5.824-8.832-12.096-17.92-18.752-27.712-6.592-9.856-12.736-18.624-18.24-26.368-5.632-8-8.704-12.608-9.344-14.208-1.408-2.88-4.288-4.16-8.384-3.392-4.032 0.768-6.72 2.624-8.128 5.632-0.896 1.472-4.096 5.888-10.048 13.12-5.952 6.976-12.288 14.976-18.816 24.128s-12.992 17.344-19.264 25.344c-6.336 7.936-10.496 13.312-12.8 16.448-6.656 12.736-13.632 16.832-20.928 12.288-5.184-2.944-9.856-6.144-13.952-9.472-4.032-3.52-7.872-6.336-11.52-8.64-7.36-5.12-8.448-11.968-3.328-20.224 12.48-14.976 23.616-28.864 33.216-41.728 8.064-10.496 15.744-20.48 23.232-30.528 7.296-9.6 11.712-15.232 13.12-16.896 1.536-2.88 0-4.48-4.416-4.48l-13.12-0c-3.648 0-9.088-0.128-16-0.512-7.104-0.384-13.568-0.256-19.52 0.512-5.824 0-10.688-1.344-14.4-4.48-3.584-2.88-4.736-6.656-3.2-11.136 0.704-3.136 1.088-7.616 1.088-13.504v-13.76c0-3.648 1.024-5.76 3.328-6.144 2.24-0.32 4.736-0.448 7.744-0.448h64.128c8.704 0 13.12-1.856 13.12-5.632v-21.376c0-3.904-0.64-5.76-2.176-5.76l-74.048-0c-4.352 0.768-7.232-0.384-8.768-3.264-1.408-3.136-2.496-6.528-3.328-10.24-0.768-3.904-0.768-7.36 0-10.624 0.832-3.52 1.024-6.4 1.024-8.512 0-9.856 4.8-14.72 14.4-14.72l66.368 0c3.84 0 5.952-0.512 6.592-1.6 0.704-1.152 1.152-3.648 1.152-7.36 0.768-3.776 1.024-10.496 0.512-20.224-0.32-9.856-0.576-16.192-0.576-19.328 0-8.256 4.8-12.352 14.336-12.352h35.456c5.888 0 8.896 1.856 8.896 5.76v44.992c0 7.616 3.392 11.392 9.856 11.392h9.984c5.12 0 11.008 0.128 17.152 0.64 6.4 0.256 12.352 0.512 18.112 0.512h14.4c10.24 0 15.616 3.776 15.616 11.136v24.896c0 6.848-3.648 10.24-11.008 10.24h-64.256c-7.232-1.6-11.136 0-11.136 4.48 0 2.112-0.128 4.992-0.512 8.384s-0.448 6.4-0.448 9.536c0 2.88 1.152 5.248 3.776 6.656 2.688 1.6 5.44 2.368 8.32 2.368h65.28c7.232 0 11.008 2.496 11.008 7.872v27.072c0 3.008-1.28 5.888-3.904 8.896-2.624 3.136-5.76 4.48-9.344 4.48h-37.632zM587.392 342.72z"  horiz-adv-x="1024" />

    
    <glyph glyph-name="shuju" unicode="&#58935;" d="M579.82906 445.665585 1023.556141 445.665585C1023.556141 445.665585 1024.957734 863.498139 579.82906 895.195248M895.638662 326.947486C895.638662 76.403326 695.169719-126.735209 447.824333-126.735209 200.502701-126.735209 0 76.403326 0 326.947486 0 577.522059 200.4977 780.650455 447.824333 780.650455L447.824333 326.947486 895.638662 326.947486 895.638662 326.947486Z"  horiz-adv-x="1024" />

    
    <glyph glyph-name="daitui2" unicode="&#58906;" d="M877.62233 422.029929l-102.683469 0L774.938861 537.563671c0 7.099016-5.742047 12.850272-12.851296 12.850272L338.504438 550.413943 338.504438 717.237229c0 7.099016-5.74307 12.841062-12.851296 12.841062L145.988795 730.078291c-7.107202 0-12.850272-5.74307-12.850272-12.841062l0-243.814397c0-7.099016 5.742047-12.851296 12.850272-12.851296l179.664347 0c7.107202 0 12.851296 5.75228 12.851296 12.851296l0 51.289544 410.742064 0 0-102.682446L633.712761 422.029929c-7.107202 0-12.850272-5.74307-12.850272-12.851296l0-76.981901L389.898364 332.196732c-7.099016 0-12.851296-5.74307-12.851296-12.851296l0-141.2261-102.683469 0c-7.097992 0-12.841062-5.75228-12.841062-12.851296l0-179.673558c0-7.099016 5.74307-12.851296 12.841062-12.851296l243.81542 0c7.099016 0 12.851296 5.75228 12.851296 12.851296L531.030315 165.269064c0 7.099016-5.75228 12.851296-12.851296 12.851296L402.74966 178.12036 402.74966 306.495164l218.113852 0 0-76.981901c0-7.108226 5.742047-12.851296 12.850272-12.851296l243.909569 0c7.107202 0 12.851296 5.742047 12.851296 12.851296L890.474649 409.178633C890.472602 416.285836 884.729532 422.029929 877.62233 422.029929zM518.180043 665.947685l308.152744 0c7.107202 0 12.851296 5.742047 12.851296 12.841062l0 12.747937c0 3.445637-1.355946 6.684557-3.765947 9.084325l-89.832174 89.945766c-2.401815 2.400792-5.639711 3.756737-9.085348 3.756737l-12.954655 0c-3.444614 0-6.683533-1.355946-9.084325-3.756737l-25.598209-25.701568c-2.608533-2.607509-3.973689-6.270098-3.756737-10.025812 0.3111-3.652355 2.194074-7.108226 5.11166-9.292066l20.579675-15.468015L518.180043 730.079314c-7.108226 0-12.851296-5.74307-12.851296-12.841062l0-38.448481C505.328747 671.690755 511.070793 665.947685 518.180043 665.947685z"  horiz-adv-x="1024" />

    
    <glyph glyph-name="icon-test" unicode="&#59173;" d="M325.323367 122.828722c0 25.876344-21.007453 46.744627-46.883797 46.744627H153.510256c-25.876344 0-46.883797-21.007453-46.883797-46.744627s21.007453-46.744627 46.883797-46.744627h124.929314c25.876344 0 46.883797 20.868283 46.883797 46.744627zM153.510256 605.99093h124.929314c25.876344 0 46.883797 21.007453 46.883797 46.744627 0 25.876344-21.007453 46.744627-46.883797 46.744627H153.510256c-25.876344 0-46.883797-20.868283-46.883797-46.744627 0-25.737174 21.007453-46.744627 46.883797-46.744627zM106.626459 387.712555c0-25.876344 21.007453-46.744627 46.883797-46.744627h124.929314c25.876344 0 46.883797 20.868283 46.883797 46.744627s-21.007453 46.744627-46.883797 46.744627H153.510256c-25.876344 0.138146-46.883797-20.868283-46.883797-46.744627zM852.444762 839.855282H247.136633c-25.879414 0-46.879704-20.871353-46.879703-46.744627v-46.744627h78.04347c51.746548 0 93.77271-41.877783 93.77271-93.490278s-41.877783-93.490278-93.77271-93.490277h-77.908394v-77.908394h78.043471c51.758828 0 93.77271-41.871643 93.77271-93.484138 0-51.618635-41.877783-93.490278-93.77271-93.490278h-78.043471V216.593246h78.043471c51.758828 0 93.77271-41.871643 93.77271-93.625354 0-51.612495-41.877783-93.490278-93.77271-93.490278h-78.043471v-46.744627c0-25.873274 21.012569-46.738487 46.879704-46.738487H852.592119c35.613102 0 64.680115 21.00029 64.680114 46.738487V793.109632c-0.135076 25.873274-29.067013 46.74565-64.827471 46.74565zM766.028601 325.462792h-98.68765v-114.815979c0-16.59291-14.343683-30.04734-32.045857-30.047339-17.689894 0-32.033577 13.45443-32.033577 30.047339V325.462792h-92.558046c-17.689894 0-32.033577 13.45443-32.033577 30.04734 0 16.59905 14.343683 30.05348 32.033577 30.05348h92.558046V418.952047h-92.558046c-17.689894 0-32.033577 13.46057-32.033577 30.047339 0 16.59905 14.343683 30.05348 32.033577 30.05348h48.351218L488.194828 543.641907c-12.687974 11.56029-12.982686 30.587646-0.662079 42.490743 12.332886 11.904121 32.621978 12.173251 45.310975 0.61296l102.415554-93.342921 102.439091 93.250824c12.652158 11.615549 32.92897 11.426237 45.310975-0.434905 12.382005-11.855002 12.173251-30.881334-0.465605-42.496883l-70.380953-64.667836h53.708225c17.702174 0 32.045857-13.45443 32.045857-30.053479 0-16.58677-14.343683-30.04734-32.045857-30.04734h-98.529037v-33.388435h98.68765c17.689894 0 32.033577-13.45443 32.033577-30.05348-0.001023-16.593933-14.344706-30.048363-32.0346-30.048363z"  horiz-adv-x="1024" />

    
    <glyph glyph-name="zhuangxiuguwen" unicode="&#59014;" d="M1002.596528 430.118364l-91.485621 91.483574v205.561749c0 40.397059-32.748868 73.144904-73.144904 73.144904-40.399105 0-73.145927-32.747845-73.145927-73.144904v-59.270918L564.965306 867.746516c-28.565593 28.566616-74.880431 28.563546-103.445001 0L21.682835 427.908022c-28.564569-28.564569-28.564569-74.877361 0-103.44193 14.282285-14.285355 33.001625-21.424962 51.721989-21.424962 18.718317 0 37.438681 7.139607 51.720965 21.424962l388.117528 388.114458 385.906164-385.90514c28.566616-28.565593 74.881454-28.565593 103.446023 0s28.565593 74.878384 0.001024 103.442954zM585.421196 226.748536c44.677549 25.498744 74.821079 73.557296 74.82108 128.682802 0 81.794911-66.308195 148.103106-148.103106 148.103106-81.795934 0-148.102083-66.308195-148.102083-148.103106 0-55.125505 30.142507-103.184057 74.821079-128.682802-111.596657-31.837102-193.301518-134.566812-193.301517-256.380158v-72.571852h533.167088v72.573899c0 121.812323-81.705883 224.541009-193.302541 256.378111z"  horiz-adv-x="1024" />

    
    <glyph glyph-name="icon-bar-chart-o" unicode="&#58953;" d="M932.223-8.001h-28.223v335.834c0 31.64-25.314 56.166-56.503 56.166h-110.936c-31.754 0-56.56-25.143-56.56-56.166v-335.834h-56.001v783.606c0 31.251-25.314 56.394-56.503 56.394h-110.993c-31.695 0-56.503-25.257-56.503-56.394v-783.606h-55.999v560.223c0 30.857-25.311 55.777-56.503 55.777h-110.994c-31.695 0-56.503-24.977-56.503-55.777v-560.223h-28.223c-15.12 0-27.777-12.543-27.777-28 0-15.006 12.431-28 27.777-28h840.389c15.177 0 27.834 12.543 27.834 28 0.001 15.007-12.432 28-27.776 28z"  horiz-adv-x="1024" />

    
    <glyph glyph-name="loupandizhiku" unicode="&#59231;" d="M823.692215 608.45728c-0.920955-15.451584-1.22794-47.275707-4.195463-70.913561l80.430099 29.572899V126.695313s-164.953333-50.345558-254.286-76.132307l-312.203857 90.048966-208.647547-72.960128V506.12891l77.25792 21.693614c-2.251224 13.302688-3.172179 47.07105-3.17218 61.192366l-134.050165-31.824124v-574.47147L109.54252-2.238433l223.587489 74.597382L645.640851-17.587689l312.7155 89.946638V646.932747l-134.664136-38.475467zM511.693015 786.508644H242.262416v-553.698811H511.693015V786.508644zM343.260518 371.15779h-67.332068v69.173978h67.332068v-69.173978z m0 138.450284h-67.332068v69.173979h67.332068v-69.173979z m0 138.450285h-67.332068V717.232337h67.332068v-69.173978z m134.766463-276.900569h-67.332067v69.173978h67.332067v-69.173978z m0 138.450284h-67.332067v69.173979h67.332067v-69.173979z m0 138.450285h-67.332067V717.232337h67.332067v-69.173978z m303.096632 50.345558H545.359049v-152.980913h235.764564V698.403917zM622.821625 413.82872h80.737084v-181.018887h77.462576V508.482462H545.359049v-275.774957h77.462576v181.121215z"  horiz-adv-x="1024" />

    
    <glyph glyph-name="shujushixin" unicode="&#58898;" d="M1262.93733 895.939009a174.814986 174.814986 0 0 1-117.590333-304.176551L983.538306 356.078616a174.967463 174.967463 0 0 1-188.537924-29.062134L605.273136 492.362641a174.830234 174.830234 0 1 1-270.097922-86.667979l-110.317176-191.069045a174.936968 174.936968 0 1 1 64.863755-35.633896l113.305727 196.253265a175.028454 175.028454 0 0 1 164.080599 52.223405l184.329557-160.573626a174.830234 174.830234 0 1 1 291.551449 45.05698l166.581223 242.713036a174.830234 174.830234 0 1 1 53.366982 341.319971z"  horiz-adv-x="1438" />

    
    <glyph glyph-name="shouye1" unicode="&#58938;" d="M1015.85664 368.64L529.45664 849.92c-10.24 10.24-25.6 10.24-35.84 0L7.21664 368.64c-15.36-15.36-5.12-46.08 20.48-46.08h107.52v-389.12c0-15.36 10.24-25.6 25.6-25.6h235.52v209.92c0 61.44 51.2 112.64 112.64 112.64s112.64-51.2 112.64-112.64v-209.92h235.52c15.36 0 25.6 10.24 25.6 25.6v389.12h107.52c30.72 0 46.08 30.72 25.6 46.08z"  horiz-adv-x="1026" />

    
    <glyph glyph-name="guanggao" unicode="&#58970;" d="M1016.4224 163.0208c0-20.8896-16.896-37.7856-37.7856-37.7856H565.8624v-190.0544c0-34.7136-28.3648-63.0784-63.0784-63.0784-34.7136 0-63.0784 28.3648-63.0784 63.0784V125.1328H45.3632c-20.8896 0-37.7856 16.896-37.7856 37.7856S24.4736 200.704 45.3632 200.704h933.2736c20.8896 0.1024 37.7856-16.7936 37.7856-37.6832z m-356.0448 518.144h-33.28V479.232h33.28c62.3616-2.4576 92.7744 31.6416 91.136 102.1952 0.8192 67.3792-29.4912 100.5568-91.136 99.7376z m-348.7744-134.144h84.992l-43.1104 119.5008-41.8816-119.5008zM982.4256 795.136v-529.7152H41.5744V795.136C41.5744 850.6368 87.04 896 142.4384 896h739.0208c55.5008 0 100.9664-45.3632 100.9664-100.864zM487.7312 448.4096l-102.1952 264.8064h-61.5424l-103.424-264.8064h54.1696l24.6784 66.4576h109.568l25.9072-66.4576h52.8384zM803.2256 582.656c0.8192 87.8592-46.3872 131.3792-141.6192 130.56h-86.2208v-264.8064h88.6784c96.8704-4.096 143.2576 40.6528 139.1616 134.2464z"  horiz-adv-x="1024" />

    


  </font>
</defs>
</svg>
